<svg width="18" height="19" viewBox="0 0 18 19" fill="none" xmlns="http://www.w3.org/2000/svg">
    <path opacity="0.4" d="M6.44905 14.7051C5.52827 13.5889 4.86624 12.3672 4.46296 11.04C4.07135 9.73454 3.9818 8.48276 4.19433 7.28466L5.77938 6.63375C6.31357 6.42766 6.71507 6.20936 6.98389 5.97885C7.2477 5.76512 7.42724 5.49879 7.52253 5.17986C7.61781 4.86093 7.61297 4.51209 7.508 4.13333C7.39801 3.77136 7.19041 3.37108 6.88518 2.93249L5.54421 0.94115L3.30561 1.86305C2.77143 2.06913 2.30144 2.39496 1.89566 2.84053C1.50656 3.29109 1.22676 3.80173 1.05625 4.37244C0.655058 5.7153 0.874601 7.35332 1.71489 9.2865C2.57186 11.2247 3.93288 13.1489 5.79796 15.0591L6.44905 14.7051ZM16.7121 17.7713C15.7914 16.6552 15.1293 15.4335 14.726 14.1062C14.3344 12.8008 14.2449 11.549 14.4574 10.3509L16.0425 9.69998C16.5767 9.49389 16.9698 9.2731 17.222 9.0376C17.4858 8.82387 17.6653 8.55754 17.7606 8.23861C17.8559 7.91968 17.851 7.57084 17.7461 7.19208C17.6528 6.83509 17.4535 6.43731 17.1483 5.99872L15.7823 3.9999L13.5687 4.92928C13.0345 5.13536 12.5645 5.46119 12.1588 5.90676C11.753 6.35234 11.4648 6.86048 11.2943 7.43119C10.8931 8.77405 11.121 10.4146 11.978 12.3527C12.835 14.2909 14.1876 16.2126 16.036 18.1178L16.7121 17.7713Z" fill="#F3F7FF"/>
</svg>
