<svg width="20" height="14" viewBox="0 0 20 14" fill="none" xmlns="http://www.w3.org/2000/svg">
    <path opacity="0.4" d="M10.8535 13.4128C12.1033 12.6836 13.1468 11.766 13.9839 10.6599C14.8025 9.57027 15.3192 8.42657 15.5338 7.22885L14.2714 6.07024C13.8414 5.69224 13.5401 5.34863 13.3675 5.03941C13.1938 4.74768 13.1173 4.43571 13.1382 4.1035C13.159 3.77129 13.2841 3.44562 13.5135 3.12648C13.7418 2.82482 14.0749 2.52096 14.5129 2.21489L16.4595 0.8097L18.2415 2.44847C18.6716 2.82647 19 3.29465 19.2268 3.85301C19.4362 4.41028 19.5223 4.98615 19.485 5.58062C19.3974 6.97939 18.6253 8.4406 17.1686 9.96424C15.6946 11.4868 13.7525 12.822 11.3421 13.97L10.8535 13.4128ZM0.163115 12.7431C1.41291 12.0139 2.45637 11.0963 3.29351 9.99024C4.11216 8.90057 4.62881 7.75687 4.84345 6.55914L3.58103 5.40054C3.15098 5.02253 2.85836 4.67947 2.70315 4.37134C2.52947 4.07961 2.45303 3.76764 2.47384 3.43543C2.49465 3.10322 2.61976 2.77755 2.84916 2.45841C3.06009 2.15566 3.38455 1.85126 3.82255 1.54518L5.79518 0.141631L7.55115 1.77876C7.98119 2.15677 8.30961 2.62495 8.53639 3.1833C8.76318 3.74166 8.85795 4.31808 8.82071 4.91255C8.73308 6.31132 7.95227 7.77198 6.47826 9.29454C5.00425 10.8171 3.07077 12.1529 0.677812 13.3019L0.163115 12.7431Z" fill="#F3F7FF"/>
</svg>
